<svg version="1.1" xmlns="http://www.w3.org/2000/svg" viewBox="0 0 4285.67320904505 964.2886839705757" width="4285.67320904505" height="964.2886839705757">
  <!-- svg-source:excalidraw -->
  
  <defs>
    <style class="style-fonts">
      @font-face {
        font-family: "Virgil";
        src: url("https://unpkg.com/@excalidraw/excalidraw@0.14.2/dist/excalidraw-assets/Virgil.woff2");
      }
      @font-face {
        font-family: "Cascadia";
        src: url("https://unpkg.com/@excalidraw/excalidraw@0.14.2/dist/excalidraw-assets/Cascadia.woff2");
      }
    </style>
  </defs>
  <rect x="0" y="0" width="4285.67320904505" height="964.2886839705757" fill="#ffffff"></rect><g stroke-linecap="round" transform="translate(2639.2334643592962 493.67473308352646) rotate(0 49.988520654267404 53.243400995624256)"><path d="M6 6.54 C6 6.54, 6 6.54, 6 6.54 M6 6.54 C6 6.54, 6 6.54, 6 6.54 M3.11 15.95 C6.67 10.31, 8.77 7.3, 14.92 2.37 M3.11 15.95 C7.7 11.51, 10.91 6.55, 14.92 2.37 M3.51 21.6 C10.63 12.21, 19.54 6.74, 21.22 1.22 M3.51 21.6 C6.92 16.41, 10.99 11.65, 21.22 1.22 M3.24 28 C8.57 22.14, 11.98 16.16, 26.21 1.58 M3.24 28 C13.3 17.47, 21.6 6.7, 26.21 1.58 M2.98 34.39 C15.23 22.48, 21.96 10.15, 31.85 1.19 M2.98 34.39 C12.68 23.86, 22.55 12.39, 31.85 1.19 M3.38 40.04 C10.78 32.59, 18.64 25.72, 36.84 1.55 M3.38 40.04 C16.98 24, 30.55 8.85, 36.84 1.55 M3.12 46.43 C12.14 34.88, 23.01 24.31, 42.48 1.15 M3.12 46.43 C17.06 31.27, 30.4 15.58, 42.48 1.15 M3.51 52.08 C13.69 39.94, 24.19 25.11, 47.47 1.51 M3.51 52.08 C21.23 33.03, 38.06 11.76, 47.47 1.51 M3.25 58.48 C21.27 36.21, 42.42 16.32, 53.11 1.12 M3.25 58.48 C14.26 45.35, 24.57 33.46, 53.11 1.12 M2.99 64.87 C15.25 50.93, 27.52 39.2, 58.1 1.48 M2.99 64.87 C22.13 44.73, 40.39 22.69, 58.1 1.48 M3.38 70.52 C26.43 41.39, 48.49 17.01, 63.08 1.84 M3.38 70.52 C18.29 51.99, 34.1 33.88, 63.08 1.84 M3.12 76.91 C24.84 54.03, 45.74 29.11, 68.73 1.44 M3.12 76.91 C29.47 47.07, 55.97 16.58, 68.73 1.44 M2.2 84.07 C27 55.77, 53.52 24.89, 73.71 1.8 M2.2 84.07 C23.96 60.51, 45.35 34.42, 73.71 1.8 M3.91 88.2 C26.6 64.18, 49.04 36.69, 79.36 1.41 M3.91 88.2 C21.8 69.51, 37.62 48.74, 79.36 1.41 M4.96 93.09 C23.26 71.06, 39.86 52.85, 83.69 2.52 M4.96 93.09 C21.13 72.85, 38.58 55.21, 83.69 2.52 M5.36 98.73 C34.08 65.93, 65.05 28.17, 87.36 4.39 M5.36 98.73 C33.22 67.79, 60.48 35.64, 87.36 4.39 M8.37 101.36 C37.15 64.81, 70.98 30.41, 92.35 4.75 M8.37 101.36 C28.47 77.38, 49.05 51.93, 92.35 4.75 M11.39 103.98 C34.21 74.57, 60.36 48.82, 94.71 8.13 M11.39 103.98 C35.52 78.42, 60.04 49.64, 94.71 8.13 M15.07 105.85 C37.98 75.89, 65.04 48.09, 97.73 10.76 M15.07 105.85 C41.49 74.44, 69.3 43.89, 97.73 10.76 M19.4 106.96 C44.65 76.35, 71.48 44.72, 98.78 15.64 M19.4 106.96 C42.41 79.4, 66.62 52.55, 98.78 15.64 M25.04 106.57 C48.32 76.99, 73.72 51.97, 99.83 20.53 M25.04 106.57 C48.74 79.98, 70.71 52.77, 99.83 20.53 M30.03 106.93 C50.32 86.28, 68.23 63.16, 100.88 25.42 M30.03 106.93 C49.38 82.93, 70.76 59.39, 100.88 25.42 M35.67 106.53 C51.03 87.96, 68.55 69.25, 100.62 31.82 M35.67 106.53 C57.11 81.11, 79.67 55.25, 100.62 31.82 M40.66 106.9 C65 78.81, 84.83 52.91, 100.36 38.22 M40.66 106.9 C63.26 79.76, 85.31 54.45, 100.36 38.22 M46.3 106.5 C64.31 85.77, 81.53 62.96, 100.76 43.86 M46.3 106.5 C63.29 86.3, 79.17 67.37, 100.76 43.86 M51.29 106.86 C64.32 90.44, 81.3 72.22, 100.49 50.26 M51.29 106.86 C62.47 94.88, 73.34 83.97, 100.49 50.26 M56.28 107.22 C71.78 89.32, 83.62 73.23, 100.23 56.66 M56.28 107.22 C72.13 89.74, 89.54 71.38, 100.23 56.66 M61.92 106.83 C74.47 94.05, 87.28 77.74, 100.63 62.3 M61.92 106.83 C70.86 96.66, 80.32 85.74, 100.63 62.3 M66.91 107.19 C77.48 91.59, 91.31 77.53, 100.37 68.7 M66.91 107.19 C73.6 97.9, 82.34 88.91, 100.37 68.7 M72.55 106.79 C78.42 98.59, 88.55 91.3, 100.1 75.09 M72.55 106.79 C82.61 94.47, 94.89 82.68, 100.1 75.09 M76.88 107.91 C85.24 97.05, 92.62 87.09, 100.5 80.74 M76.88 107.91 C83.82 100.9, 90.02 92.34, 100.5 80.74 M83.18 106.76 C89.79 101.45, 93.25 93.19, 99.58 87.89 M83.18 106.76 C88.45 101.57, 91.21 97.24, 99.58 87.89" stroke="#7950f2" stroke-width="0.5" fill="none"></path><path d="M24.99 0 M24.99 0 C43.42 1.08, 62.01 0.56, 74.98 0 M24.99 0 C38.23 0.14, 51.09 -0.18, 74.98 0 M74.98 0 C92.55 -0.48, 98.18 6.36, 99.98 24.99 M74.98 0 C90.15 -1.32, 98.44 9.37, 99.98 24.99 M99.98 24.99 C98.28 48.04, 101.92 66.86, 99.98 81.49 M99.98 24.99 C99.46 42.69, 101.01 62.94, 99.98 81.49 M99.98 81.49 C100.65 99.69, 92.7 108.18, 74.98 106.49 M99.98 81.49 C98.15 99.87, 91.66 106.12, 74.98 106.49 M74.98 106.49 C59.49 106.72, 44.14 105.13, 24.99 106.49 M74.98 106.49 C59.84 106.14, 46.57 107.44, 24.99 106.49 M24.99 106.49 C6.51 106.02, -0.43 97.06, 0 81.49 M24.99 106.49 C8.88 107.36, -1.05 96.73, 0 81.49 M0 81.49 C1.46 68.06, -2.04 56.27, 0 24.99 M0 81.49 C0.59 67.31, 0.9 52.3, 0 24.99 M0 24.99 C1.72 8.4, 9.23 -0.53, 24.99 0 M0 24.99 C0.2 9.97, 6.77 -0.53, 24.99 0" stroke="#5f3dc4" stroke-width="1" fill="none"></path></g><g transform="translate(2887.2415587997666 407.86897275325157) rotate(0 43 13)"><text x="0" y="18" font-family="Virgil, Segoe UI Emoji" font-size="20px" fill="#000000" text-anchor="start" style="white-space: pre;" direction="ltr">Realidad</text></g><g transform="translate(2829.3821445584213 699.7237958137481) rotate(0 85.5 13)"><text x="0" y="18" font-family="Virgil, Segoe UI Emoji" font-size="20px" fill="#000000" text-anchor="start" style="white-space: pre;" direction="ltr">Realidad &lt;=&gt; Ser</text></g><g transform="translate(2351.6592918017886 703.0183231664806) rotate(0 116.5 13)"><text x="0" y="18" font-family="Virgil, Segoe UI Emoji" font-size="20px" fill="#000000" text-anchor="start" style="white-space: pre;" direction="ltr">No hay modelo perfecto</text></g><g transform="translate(2456.101163479796 292.3917359473702) rotate(0 33.5 13)"><text x="0" y="18" font-family="Virgil, Segoe UI Emoji" font-size="20px" fill="#000000" text-anchor="start" style="white-space: pre;" direction="ltr">Modelo</text></g><g transform="translate(3048.1235666171815 348.67968406377514) rotate(0 438.5 78)"><text x="0" y="18" font-family="Virgil, Segoe UI Emoji" font-size="20px" fill="#000000" text-anchor="start" style="white-space: pre;" direction="ltr">Percepción de estímulos externos que forman al ser (sujeto) internamente. </text><text x="0" y="44" font-family="Virgil, Segoe UI Emoji" font-size="20px" fill="#000000" text-anchor="start" style="white-space: pre;" direction="ltr">Da igual si lo experimentado por el sujeto es verdad o mentira, ha ocurrido o no, </text><text x="0" y="70" font-family="Virgil, Segoe UI Emoji" font-size="20px" fill="#000000" text-anchor="start" style="white-space: pre;" direction="ltr">ya que el sujeto lo vive emocionalmente como un hecho real.</text><text x="0" y="96" font-family="Virgil, Segoe UI Emoji" font-size="20px" fill="#000000" text-anchor="start" style="white-space: pre;" direction="ltr"></text><text x="0" y="122" font-family="Virgil, Segoe UI Emoji" font-size="20px" fill="#000000" text-anchor="start" style="white-space: pre;" direction="ltr">Una película de miedo es ficción,</text><text x="0" y="148" font-family="Virgil, Segoe UI Emoji" font-size="20px" fill="#000000" text-anchor="start" style="white-space: pre;" direction="ltr">per el miedo generados en el cuerpo y mente de los espectadores es una sensación real.</text></g><g transform="translate(3073.8958021145945 709.3256290020279) rotate(0 215.5 13)"><text x="0" y="18" font-family="Virgil, Segoe UI Emoji" font-size="20px" fill="#000000" text-anchor="start" style="white-space: pre;" direction="ltr">Si inventas un modelo y la gente se lo cree</text></g><g transform="translate(3557.7871075864023 704.2640044678039) rotate(0 180.49999999999994 13)"><text x="0" y="18" font-family="Virgil, Segoe UI Emoji" font-size="20px" fill="#000000" text-anchor="start" style="white-space: pre;" direction="ltr">Controlas la realidad de esos seres</text></g><g transform="translate(3997.1361171570397 648.5861345913407) rotate(0 124.5 13)"><text x="0" y="18" font-family="Virgil, Segoe UI Emoji" font-size="20px" fill="#000000" text-anchor="start" style="white-space: pre;" direction="ltr">Control absoluto del ser:</text></g><g transform="translate(3997.1361171570397 682.5861345913407) rotate(0 80 13)"><text x="0" y="18" font-family="Virgil, Segoe UI Emoji" font-size="20px" fill="#000000" text-anchor="start" style="white-space: pre;" direction="ltr">· Cuerpo (físico)</text></g><g transform="translate(3997.1361171570397 716.5861345913407) rotate(0 38 13)"><text x="0" y="18" font-family="Virgil, Segoe UI Emoji" font-size="20px" fill="#000000" text-anchor="start" style="white-space: pre;" direction="ltr">· Mente</text></g><g transform="translate(3997.1361171570397 750.5861345913407) rotate(0 121 13)"><text x="0" y="18" font-family="Virgil, Segoe UI Emoji" font-size="20px" fill="#000000" text-anchor="start" style="white-space: pre;" direction="ltr">· Alma (parte espiritual)</text></g><g transform="translate(596.6653753842097 903.999172589283) rotate(0 811 13)"><text x="0" y="18" font-family="Virgil, Segoe UI Emoji" font-size="20px" fill="#000000" text-anchor="start" style="white-space: pre;" direction="ltr">Dentro de un sistema de referencia si hay verdades para ese caso concreto, pero el problema es que existen infinitos sistemas de referencia individuales y únicos.</text></g><g transform="translate(824.6861847493935 688.6175938678462) rotate(0 702 78)"><text x="0" y="18" font-family="Virgil, Segoe UI Emoji" font-size="20px" fill="#000000" text-anchor="start" style="white-space: pre;" direction="ltr">Según el Ser pueden haber varios modelos mentales de la realidad, pero en la parte física se manifiesta solo uno.</text><text x="0" y="44" font-family="Virgil, Segoe UI Emoji" font-size="20px" fill="#000000" text-anchor="start" style="white-space: pre;" direction="ltr"></text><text x="0" y="70" font-family="Virgil, Segoe UI Emoji" font-size="20px" fill="#000000" text-anchor="start" style="white-space: pre;" direction="ltr">Bajo un mismo sistema de referencia propio hay ejemplos que se pueden explicar desde modelos diferentes y ambos ser válidos, </text><text x="0" y="96" font-family="Virgil, Segoe UI Emoji" font-size="20px" fill="#000000" text-anchor="start" style="white-space: pre;" direction="ltr">un cuadrado moviéndose sobre un fondo visualmente es lo mismo que un fondo moviéndose detrás de un cuadrado. Ahora si se manifiestan</text><text x="0" y="122" font-family="Virgil, Segoe UI Emoji" font-size="20px" fill="#000000" text-anchor="start" style="white-space: pre;" direction="ltr"> dos modelos a la vez físicamente en las mismas condiciones la "ciencia" que intenta ser concisa con su argumentación dejaría de ser válida </text><text x="0" y="148" font-family="Virgil, Segoe UI Emoji" font-size="20px" fill="#000000" text-anchor="start" style="white-space: pre;" direction="ltr">ya que la realidad no sería más que una manifestación de la interacción cuerpo+mente+alma del Ser.</text></g><g transform="translate(1256.4077234618996 618.0235578598092) rotate(0 474 13)"><text x="0" y="18" font-family="Virgil, Segoe UI Emoji" font-size="20px" fill="#000000" text-anchor="start" style="white-space: pre;" direction="ltr">La percepción de la realidad es subjetiva y por tanto el modelo mental de la realidad también.</text></g><g transform="translate(1715.4517363485813 549.442257993205) rotate(0 243 13)"><text x="0" y="18" font-family="Virgil, Segoe UI Emoji" font-size="20px" fill="#000000" text-anchor="start" style="white-space: pre;" direction="ltr">Los modelos tiene parte de verdad y de mentira.</text></g><g transform="translate(988.9121655974043 354.49362387913834) rotate(0 589 52)"><text x="0" y="18" font-family="Virgil, Segoe UI Emoji" font-size="20px" fill="#000000" text-anchor="start" style="white-space: pre;" direction="ltr">Los modelos al ser explicaciones de la realidad, pueden ser creados para un fin concreto y beneficio del creador, </text><text x="0" y="44" font-family="Virgil, Segoe UI Emoji" font-size="20px" fill="#000000" text-anchor="start" style="white-space: pre;" direction="ltr">ahí la peligrosidad de no someterlos a revisión crítica.</text><text x="0" y="70" font-family="Virgil, Segoe UI Emoji" font-size="20px" fill="#000000" text-anchor="start" style="white-space: pre;" direction="ltr">Un modelo puede ser usado para engañar a las personas y desvalorizarlas o para valorarlas y mostrarles la verdad.</text><text x="0" y="96" font-family="Virgil, Segoe UI Emoji" font-size="20px" fill="#000000" text-anchor="start" style="white-space: pre;" direction="ltr"></text></g><g transform="translate(716.837041518507 173.18360683256162) rotate(0 730.5 65)"><text x="0" y="18" font-family="Virgil, Segoe UI Emoji" font-size="20px" fill="#000000" text-anchor="start" style="white-space: pre;" direction="ltr">Los modelos hipotéticos o teorizados son explicaciones basadas datos interpretados por sujetos que inherentemente son subjetivas. </text><text x="0" y="44" font-family="Virgil, Segoe UI Emoji" font-size="20px" fill="#000000" text-anchor="start" style="white-space: pre;" direction="ltr">La conclusión de una teoría o hipótesis es el consenso entre investigadores sobre ese tema. </text><text x="0" y="70" font-family="Virgil, Segoe UI Emoji" font-size="20px" fill="#000000" text-anchor="start" style="white-space: pre;" direction="ltr">Como la naturaleza es cambiante lo que hoy se acepta como modelo mañana puede no serlo.</text><text x="0" y="96" font-family="Virgil, Segoe UI Emoji" font-size="20px" fill="#000000" text-anchor="start" style="white-space: pre;" direction="ltr"></text><text x="0" y="122" font-family="Virgil, Segoe UI Emoji" font-size="20px" fill="#000000" text-anchor="start" style="white-space: pre;" direction="ltr">Por eso, es necesario un debate abierto y constructivo, porque sino la ciencia se convierte en una dictadura del pensamiento sin avance científico.</text></g><g transform="translate(1916.1064013843707 35.74141780462821) rotate(0 100.5 13)"><text x="0" y="18" font-family="Virgil, Segoe UI Emoji" font-size="20px" fill="#000000" text-anchor="start" style="white-space: pre;" direction="ltr">Modelo A, B, C, etc.</text></g><g transform="translate(1299.4291279156002 35.74141780462821) rotate(0 242.5 13)"><text x="0" y="18" font-family="Virgil, Segoe UI Emoji" font-size="20px" fill="#000000" text-anchor="start" style="white-space: pre;" direction="ltr">Conclusión &lt;= Argumento + Axioma + Experimento</text></g><g transform="translate(869.7880384879077 38.452087138556976) rotate(0 137 13)"><text x="0" y="18" font-family="Virgil, Segoe UI Emoji" font-size="20px" fill="#000000" text-anchor="start" style="white-space: pre;" direction="ltr">Mentalidad &lt;=&gt; InFormación</text></g><g transform="translate(533.665041080752 33.030748470699564) rotate(0 125.5 13)"><text x="0" y="18" font-family="Virgil, Segoe UI Emoji" font-size="20px" fill="#000000" text-anchor="start" style="white-space: pre;" direction="ltr">Aprendizaje + Experiencia</text></g><g transform="translate(22.703871635198084 38.452087138556976) rotate(0 212.5 13)"><text x="0" y="18" font-family="Virgil, Segoe UI Emoji" font-size="20px" fill="#000000" text-anchor="start" style="white-space: pre;" direction="ltr">Conocimiento del ser (individual o colectivo)</text></g><g stroke-linecap="round" transform="translate(2333.583960352035 688.9336352593645) rotate(0 128.63438545037462 30.351933645593988)"><path d="M15.18 0 M15.18 0 C86.28 -0.32, 157.75 -0.97, 242.09 0 M15.18 0 C98.64 -0.6, 182.59 -0.17, 242.09 0 M242.09 0 C252.41 -1.14, 255.98 6.08, 257.27 15.18 M242.09 0 C253.56 -0.56, 257.98 5.5, 257.27 15.18 M257.27 15.18 C259.39 26.81, 257.05 33.86, 257.27 45.53 M257.27 15.18 C256.81 21.57, 257.58 28.96, 257.27 45.53 M257.27 45.53 C255.31 57.08, 250.46 60.17, 242.09 60.7 M257.27 45.53 C257.98 55.68, 251.7 61.45, 242.09 60.7 M242.09 60.7 C177.9 61.68, 114.28 60.89, 15.18 60.7 M242.09 60.7 C178.15 59.15, 114.82 59.25, 15.18 60.7 M15.18 60.7 C6.78 59.95, 0.88 55.47, 0 45.53 M15.18 60.7 C4.21 59.04, 0.72 55.04, 0 45.53 M0 45.53 C-1.59 34.13, -0.77 26.48, 0 15.18 M0 45.53 C-0.19 34.76, 0.51 22.94, 0 15.18 M0 15.18 C0.82 5.44, 3.43 0.09, 15.18 0 M0 15.18 C0.49 3.5, 7.32 -0.35, 15.18 0" stroke="#000000" stroke-width="1" fill="none"></path></g><g stroke-linecap="round" transform="translate(2426.490429531257 283.47446679870006) rotate(0 62.630974189320966 26.01594312479486)"><path d="M13.01 0 M13.01 0 C47.27 0.3, 78.66 1.38, 112.25 0 M13.01 0 C35.96 0.63, 60 1.14, 112.25 0 M112.25 0 C120.62 1.72, 124.5 5.21, 125.26 13.01 M112.25 0 C120.73 -0.85, 123.6 5.05, 125.26 13.01 M125.26 13.01 C124.07 18.42, 124.13 26.36, 125.26 39.02 M125.26 13.01 C124.69 22.39, 125.43 32.58, 125.26 39.02 M125.26 39.02 C123.27 48.52, 121.31 50.4, 112.25 52.03 M125.26 39.02 C125.37 48.18, 119.37 54.3, 112.25 52.03 M112.25 52.03 C84.11 54.23, 57.33 51.44, 13.01 52.03 M112.25 52.03 C76.72 51.77, 41.56 52.11, 13.01 52.03 M13.01 52.03 C2.35 51.44, -1.49 49.15, 0 39.02 M13.01 52.03 C2.45 52.92, 0.62 47.17, 0 39.02 M0 39.02 C-0.34 32.09, 1.54 24.29, 0 13.01 M0 39.02 C0.59 30.07, -0.45 21.09, 0 13.01 M0 13.01 C1.75 3.2, 3.33 0.58, 13.01 0 M0 13.01 C1.17 5.66, 3.55 -0.12, 13.01 0" stroke="#000000" stroke-width="1" fill="none"></path></g><g stroke-linecap="round" transform="translate(2872.327920818725 399.308217463236) rotate(0 59.25853711758833 22.643506053062197)"><path d="M11.32 0 M11.32 0 C35.44 0.72, 56 2.06, 107.2 0 M11.32 0 C47.71 -0.83, 84.28 -0.59, 107.2 0 M107.2 0 C116.41 0.66, 116.53 3.18, 118.52 11.32 M107.2 0 C113.03 1.67, 116.63 4.66, 118.52 11.32 M118.52 11.32 C120.07 20.69, 118.33 26.16, 118.52 33.97 M118.52 11.32 C117.75 20.75, 118.84 28.56, 118.52 33.97 M118.52 33.97 C117.26 40.21, 116.49 44.15, 107.2 45.29 M118.52 33.97 C117.36 42.18, 115.91 46.61, 107.2 45.29 M107.2 45.29 C83.31 44.11, 58.13 45.18, 11.32 45.29 M107.2 45.29 C84.45 44.77, 61.06 44.56, 11.32 45.29 M11.32 45.29 C2.27 43.86, -1.37 40.16, 0 33.97 M11.32 45.29 C2.77 46.14, 1.06 40.83, 0 33.97 M0 33.97 C-0.64 26.94, -1.44 19.55, 0 11.32 M0 33.97 C-0.84 27.27, 0.1 22.01, 0 11.32 M0 11.32 C-0.89 3.8, 5.4 -0.82, 11.32 0 M0 11.32 C-1.92 1.83, 5.66 1.34, 11.32 0" stroke="#000000" stroke-width="1" fill="none"></path></g><g stroke-linecap="round" transform="translate(2816.46850657738 691.1493596197013) rotate(0 99.24600525384716 25.052389675728392)"><path d="M12.53 0 M12.53 0 C65.4 -0.63, 118.31 1.54, 185.97 0 M12.53 0 C60.05 0.56, 105.32 1.41, 185.97 0 M185.97 0 C195.33 1.15, 197.81 4.08, 198.49 12.53 M185.97 0 C194.21 1.84, 197.19 6.37, 198.49 12.53 M198.49 12.53 C196.47 20.77, 199.1 27.73, 198.49 37.58 M198.49 12.53 C197.62 19.79, 197.87 28.79, 198.49 37.58 M198.49 37.58 C199.42 45.33, 195.42 49.13, 185.97 50.1 M198.49 37.58 C199.01 45.07, 195.48 48.32, 185.97 50.1 M185.97 50.1 C118.79 48.08, 51.14 49.96, 12.53 50.1 M185.97 50.1 C140.89 49.71, 93.35 49.28, 12.53 50.1 M12.53 50.1 C5.81 51.27, 1.27 45.06, 0 37.58 M12.53 50.1 C6.31 48.59, -1.76 44.57, 0 37.58 M0 37.58 C2.17 31.1, -1.29 27.02, 0 12.53 M0 37.58 C0.46 29.97, -1.09 23.68, 0 12.53 M0 12.53 C-0.46 4.85, 4.77 -0.51, 12.53 0 M0 12.53 C1.12 3.6, 6.29 0.29, 12.53 0" stroke="#000000" stroke-width="1" fill="none"></path></g><g stroke-linecap="round" transform="translate(3032.684499598183 342.48142817704905) rotate(0 454.0518230349307 85.71109682140869)"><path d="M32 0 M32 0 C228.56 -1.49, 424.82 -1.64, 876.1 0 M32 0 C304.01 -1.38, 576.47 -1.78, 876.1 0 M876.1 0 C896.78 -1.74, 906.32 10.8, 908.1 32 M876.1 0 C896.62 -1.03, 908.13 12.54, 908.1 32 M908.1 32 C908.85 60.98, 908.48 86.77, 908.1 139.42 M908.1 32 C906.81 73.29, 906.63 116.23, 908.1 139.42 M908.1 139.42 C910.08 159.53, 895.95 171.36, 876.1 171.42 M908.1 139.42 C907.54 163.01, 895.26 173.05, 876.1 171.42 M876.1 171.42 C682.09 171.39, 488.68 170.92, 32 171.42 M876.1 171.42 C581.93 174.84, 287.48 174.78, 32 171.42 M32 171.42 C9.18 171.82, -0.28 159.05, 0 139.42 M32 171.42 C12.92 173.46, 0.01 159.17, 0 139.42 M0 139.42 C-0.56 109.07, -1.19 80.74, 0 32 M0 139.42 C0.59 113.07, 0.39 88.31, 0 32 M0 32 C1.03 10.21, 10.61 -1.29, 32 0 M0 32 C-2.2 9.31, 10.43 2.24, 32 0" stroke="#000000" stroke-width="1" fill="none"></path></g><g stroke-linecap="round" transform="translate(3061.2698750046447 692.1259208658762) rotate(0 225.66972327662035 29.293666002253588)"><path d="M14.65 0 M14.65 0 C148.07 -1.18, 281.29 -2.16, 436.69 0 M14.65 0 C115.89 -1.66, 217.71 -2.19, 436.69 0 M436.69 0 C446.32 -1.93, 449.49 3.68, 451.34 14.65 M436.69 0 C446.42 -1.55, 453.43 4.59, 451.34 14.65 M451.34 14.65 C452.51 21, 453.1 31.67, 451.34 43.94 M451.34 14.65 C450.56 24.14, 451.75 35.08, 451.34 43.94 M451.34 43.94 C449.74 52.29, 448 57.41, 436.69 58.59 M451.34 43.94 C450.84 55.71, 448.03 60.78, 436.69 58.59 M436.69 58.59 C330.13 60.58, 224.06 60.28, 14.65 58.59 M436.69 58.59 C297.87 59.93, 160.45 60.19, 14.65 58.59 M14.65 58.59 C4.92 59.92, -1.01 55.26, 0 43.94 M14.65 58.59 C4.96 59.05, 0.54 53.69, 0 43.94 M0 43.94 C-1.44 37.07, -0.19 32.29, 0 14.65 M0 43.94 C1.09 37.03, 1.14 29.03, 0 14.65 M0 14.65 C0.26 3.9, 4.08 -1.43, 14.65 0 M0 14.65 C0.78 5.81, 5.08 0.47, 14.65 0" stroke="#000000" stroke-width="1" fill="none"></path></g><g stroke-linecap="round" transform="translate(3546.242789930843 688.871069087848) rotate(0 191.49377960732448 30.92109189126768)"><path d="M15.46 0 M15.46 0 C112.24 -1.2, 206.86 -2.24, 367.53 0 M15.46 0 C107.13 -0.71, 198.42 -0.13, 367.53 0 M367.53 0 C378.58 0.63, 382.47 5.57, 382.99 15.46 M367.53 0 C377.9 0.85, 384.55 4.68, 382.99 15.46 M382.99 15.46 C383.16 28.25, 380.87 38.5, 382.99 46.38 M382.99 15.46 C383.45 23.01, 382.97 29.77, 382.99 46.38 M382.99 46.38 C382.88 58.37, 376.55 63.8, 367.53 61.84 M382.99 46.38 C381.77 57.61, 377.65 61.2, 367.53 61.84 M367.53 61.84 C284.16 59.66, 197.77 59.88, 15.46 61.84 M367.53 61.84 C277.85 63.96, 188.61 63.6, 15.46 61.84 M15.46 61.84 C6.62 60.43, -0.56 58.4, 0 46.38 M15.46 61.84 C5.25 62.9, 0.15 57.42, 0 46.38 M0 46.38 C-0.83 38.82, -1.34 28.93, 0 15.46 M0 46.38 C-0.09 34.61, 0.04 25.03, 0 15.46 M0 15.46 C0.79 4.62, 5.43 0.87, 15.46 0 M0 15.46 C-1.01 5.94, 3.5 0.55, 15.46 0" stroke="#000000" stroke-width="1" fill="none"></path></g><g stroke-linecap="round" transform="translate(3978.3967466518097 633.1949680254736) rotate(0 148.63823119662015 81.91376974704247)"><path d="M32 0 M32 0 C88.03 1.69, 143.74 -0.47, 265.28 0 M32 0 C100.42 0.74, 170.21 -0.37, 265.28 0 M265.28 0 C284.96 0.27, 296.47 10.39, 297.28 32 M265.28 0 C286.62 -2.19, 295.79 9.21, 297.28 32 M297.28 32 C296.93 54.14, 298.7 73.85, 297.28 131.83 M297.28 32 C295.56 70.08, 295.96 110.4, 297.28 131.83 M297.28 131.83 C296.29 151.53, 284.68 163.45, 265.28 163.83 M297.28 131.83 C296.32 150.96, 286.61 162.71, 265.28 163.83 M265.28 163.83 C213.64 165.28, 159.31 164.76, 32 163.83 M265.28 163.83 C215.75 163.32, 166.72 163.94, 32 163.83 M32 163.83 C11.52 163.64, -1.49 153.96, 0 131.83 M32 163.83 C9.66 165.78, 1.41 154.96, 0 131.83 M0 131.83 C1.02 96.81, -1.43 64.7, 0 32 M0 131.83 C-0.62 104.46, 0.43 77.02, 0 32 M0 32 C-0.23 11.1, 10.79 1.81, 32 0 M0 32 C1 10.06, 11.19 0.28, 32 0" stroke="#000000" stroke-width="1" fill="none"></path></g><g stroke-linecap="round" transform="translate(1698.993019376133 533.8549961975484) rotate(0 256.59081516788797 27.666240113239496)"><path d="M13.83 0 M13.83 0 C131.05 2.19, 248.68 0.92, 499.35 0 M13.83 0 C112.26 0.86, 211.29 0.54, 499.35 0 M499.35 0 C507.95 0.5, 514.43 5.74, 513.18 13.83 M499.35 0 C507.78 0.59, 511.17 6.1, 513.18 13.83 M513.18 13.83 C514.72 22.2, 514.06 30.87, 513.18 41.5 M513.18 13.83 C514.14 20.68, 514.08 26.7, 513.18 41.5 M513.18 41.5 C514.18 51.54, 510.09 54.21, 499.35 55.33 M513.18 41.5 C512.11 51.5, 507.89 54.9, 499.35 55.33 M499.35 55.33 C364.4 53.91, 228.96 54.77, 13.83 55.33 M499.35 55.33 C350.61 56.33, 202.14 56.64, 13.83 55.33 M13.83 55.33 C4.89 55.92, -1.51 52.16, 0 41.5 M13.83 55.33 C4.63 54.01, 1.84 48.5, 0 41.5 M0 41.5 C0.9 33.73, -0.65 27.37, 0 13.83 M0 41.5 C0.19 34.64, -0.1 29.1, 0 13.83 M0 13.83 C1.5 5.99, 5.45 1.08, 13.83 0 M0 13.83 C-1.72 4.25, 2.57 1.56, 13.83 0" stroke="#000000" stroke-width="1" fill="none"></path></g><g stroke-linecap="round" transform="translate(1237.8890174888077 613.0563894629008) rotate(0 489.31271729690263 24.411388335211342)"><path d="M12.21 0 M12.21 0 C326.35 -3.2, 641.13 -3.51, 966.42 0 M12.21 0 C256.28 -1.87, 499.91 -1.73, 966.42 0 M966.42 0 C973.13 1.58, 978.65 4.89, 978.63 12.21 M966.42 0 C973.33 0.27, 979.22 5.79, 978.63 12.21 M978.63 12.21 C977.24 20.9, 976.95 31.57, 978.63 36.62 M978.63 12.21 C977.72 19.62, 977.69 28.87, 978.63 36.62 M978.63 36.62 C978.39 45.06, 973.54 49.64, 966.42 48.82 M978.63 36.62 C977.78 43.41, 975.72 50.5, 966.42 48.82 M966.42 48.82 C619.82 46.93, 274.75 46.5, 12.21 48.82 M966.42 48.82 C679.45 48.97, 392.74 48.94, 12.21 48.82 M12.21 48.82 C4.06 47.05, 1.14 45.8, 0 36.62 M12.21 48.82 C5.89 49.12, 0.03 42.85, 0 36.62 M0 36.62 C-0.19 28.83, 0.68 25.02, 0 12.21 M0 36.62 C-0.33 29.32, 0.29 20.4, 0 12.21 M0 12.21 C0.19 4.51, 3.12 0.36, 12.21 0 M0 12.21 C2.05 4.58, 2.28 -1.72, 12.21 0" stroke="#000000" stroke-width="1" fill="none"></path></g><g stroke-linecap="round" transform="translate(804.4086025096522 680.3233262088164) rotate(0 715.524915869861 85.71109682140866)"><path d="M32 0 M32 0 C464.85 -0.79, 897.14 -0.37, 1399.05 0 M32 0 C347.84 -0.89, 663.65 -0.47, 1399.05 0 M1399.05 0 C1419.25 1.75, 1429.8 11.56, 1431.05 32 M1399.05 0 C1420.43 0.34, 1431.9 8.83, 1431.05 32 M1431.05 32 C1428.77 67.76, 1429.55 103.12, 1431.05 139.42 M1431.05 32 C1432.02 72.64, 1430.51 110.98, 1431.05 139.42 M1431.05 139.42 C1430.17 161.64, 1422.21 172.46, 1399.05 171.42 M1431.05 139.42 C1430.53 162.25, 1421.47 172.7, 1399.05 171.42 M1399.05 171.42 C1018.13 174.82, 636.87 175.63, 32 171.42 M1399.05 171.42 C1062.86 167.32, 725.98 166.76, 32 171.42 M32 171.42 C10.79 169.89, -0.93 159.02, 0 139.42 M32 171.42 C11.92 172.29, -1.64 158.83, 0 139.42 M0 139.42 C-0.85 94.7, 0.47 51.94, 0 32 M0 139.42 C-0.02 113.57, -0.13 86.7, 0 32 M0 32 C0.3 11.06, 11.12 -0.72, 32 0 M0 32 C-0.1 10.11, 12.78 0.43, 32 0" stroke="#000000" stroke-width="1" fill="none"></path></g><g stroke-linecap="round" transform="translate(515.0499165945926 10) rotate(0 140.56208522090526 36.5096325249105)"><path d="M18.25 0 M18.25 0 C76.55 -1.18, 134.05 -0.37, 262.87 0 M18.25 0 C89.9 1.17, 160.76 1.11, 262.87 0 M262.87 0 C273.55 -1.13, 279.13 5.71, 281.12 18.25 M262.87 0 C276.35 1.02, 282.26 4.33, 281.12 18.25 M281.12 18.25 C280.47 26.79, 280.63 36.41, 281.12 54.76 M281.12 18.25 C280.41 26.29, 281.09 35.24, 281.12 54.76 M281.12 54.76 C280.74 66.46, 276.47 72.24, 262.87 73.02 M281.12 54.76 C279.99 66.42, 274.42 72.99, 262.87 73.02 M262.87 73.02 C179.44 74.4, 95.22 71.67, 18.25 73.02 M262.87 73.02 C172.99 72.74, 81.7 72.43, 18.25 73.02 M18.25 73.02 C5.42 74.03, -1.79 68.8, 0 54.76 M18.25 73.02 C6.74 72, 0.7 66.68, 0 54.76 M0 54.76 C0.45 41.61, 0.4 29.47, 0 18.25 M0 54.76 C0.49 42.85, -0.04 32.95, 0 18.25 M0 18.25 C0.7 6.98, 5.41 -0.42, 18.25 0 M0 18.25 C-1.79 5.35, 4.22 0.88, 18.25 0" stroke="#000000" stroke-width="1" fill="none"></path></g><g stroke-linecap="round" transform="translate(852.1555235745993 24.603853009964155) rotate(0 149.0809994767177 26.16523664285245)"><path d="M13.08 0 M13.08 0 C116.52 -0.25, 220.76 -0.61, 285.08 0 M13.08 0 C98.22 -1.13, 184.93 -0.88, 285.08 0 M285.08 0 C294.7 -0.67, 297.74 2.8, 298.16 13.08 M285.08 0 C293.06 -1.86, 299.04 3.07, 298.16 13.08 M298.16 13.08 C298.78 20.88, 298.66 25.69, 298.16 39.25 M298.16 13.08 C297.83 19.53, 298.61 27.16, 298.16 39.25 M298.16 39.25 C300.15 46.53, 291.88 50.92, 285.08 52.33 M298.16 39.25 C298.41 48.69, 291.93 53.25, 285.08 52.33 M285.08 52.33 C216.89 53.35, 150.44 51.33, 13.08 52.33 M285.08 52.33 C187.71 52.08, 89.85 51.83, 13.08 52.33 M13.08 52.33 C3.51 51, 1.56 48.52, 0 39.25 M13.08 52.33 C4.97 51.55, 1.62 48.66, 0 39.25 M0 39.25 C-0.96 27.91, 0.45 17.52, 0 13.08 M0 39.25 C0.84 30.04, 0.16 19.7, 0 13.08 M0 13.08 C0.11 3.95, 3.87 -0.44, 13.08 0 M0 13.08 C-1.3 2.9, 3.04 -0.89, 13.08 0" stroke="#000000" stroke-width="1" fill="none"></path></g><g stroke-linecap="round" transform="translate(1280.535211866882 19.735902006642846) rotate(0 258.0014031760338 27.99071826909801)"><path d="M14 0 M14 0 C133.34 0.47, 253.62 -0.62, 502.01 0 M14 0 C189.59 0.54, 364.92 0.41, 502.01 0 M502.01 0 C510.49 -1.33, 517.56 5.21, 516 14 M502.01 0 C511.94 -0.78, 517.63 5.35, 516 14 M516 14 C515.39 23.71, 516.8 34.37, 516 41.99 M516 14 C517.09 25.88, 516.41 36.62, 516 41.99 M516 41.99 C516.11 50.91, 510.85 55.54, 502.01 55.98 M516 41.99 C514.7 49.86, 510.01 55.09, 502.01 55.98 M502.01 55.98 C401 56.17, 298.88 56.66, 14 55.98 M502.01 55.98 C316.39 54.8, 130.11 55.04, 14 55.98 M14 55.98 C4.91 56.59, -0.46 50.12, 0 41.99 M14 55.98 C5.08 57.82, 0.74 52.11, 0 41.99 M0 41.99 C-1.25 33.05, -0.18 24.05, 0 14 M0 41.99 C-0.26 35.79, 0.47 29.76, 0 14 M0 14 C-0.54 5.23, 2.84 -0.43, 14 0 M0 14 C1.72 6.2, 5.31 -2.03, 14 0" stroke="#000000" stroke-width="1" fill="none"></path></g><g stroke-linecap="round" transform="translate(1896.331013787036 23.386865259133742) rotate(0 119.87329345678938 26.165236642852506)"><path d="M13.08 0 M13.08 0 C66.97 -2.22, 119.1 -3.01, 226.66 0 M13.08 0 C66.27 -0.44, 118.4 -0.08, 226.66 0 M226.66 0 C236.98 0.65, 240.44 4.52, 239.75 13.08 M226.66 0 C234.8 2.22, 238.23 4, 239.75 13.08 M239.75 13.08 C237.91 21.66, 238.65 28.6, 239.75 39.25 M239.75 13.08 C240.19 20.61, 239.7 30.72, 239.75 39.25 M239.75 39.25 C241.08 48.53, 233.62 50.47, 226.66 52.33 M239.75 39.25 C241.47 48.05, 236.34 53.17, 226.66 52.33 M226.66 52.33 C142.61 50.41, 57.56 48.93, 13.08 52.33 M226.66 52.33 C157.68 53.94, 89.31 53.61, 13.08 52.33 M13.08 52.33 C4.58 53.3, -1.49 47.46, 0 39.25 M13.08 52.33 C2.53 51.28, -0.32 46.48, 0 39.25 M0 39.25 C2.12 31.51, 0.25 24.68, 0 13.08 M0 39.25 C0.78 31.75, 0.27 23.56, 0 13.08 M0 13.08 C1.57 4.02, 4.14 1.45, 13.08 0 M0 13.08 C1.3 5.5, 2.73 -0.32, 13.08 0" stroke="#000000" stroke-width="1" fill="none"></path></g><g stroke-linecap="round" transform="translate(10 17.301926504981907) rotate(0 225.14273390361427 31.64168152158902)"><path d="M15.82 0 M15.82 0 C144.01 -1.66, 269.11 -0.35, 434.46 0 M15.82 0 C137.56 1.69, 259.3 2.11, 434.46 0 M434.46 0 C446.69 1.41, 451.22 5.5, 450.29 15.82 M434.46 0 C446.13 -1.72, 449.69 3.44, 450.29 15.82 M450.29 15.82 C449.67 22.9, 451.52 33.91, 450.29 47.46 M450.29 15.82 C450.34 24.07, 450.27 33.51, 450.29 47.46 M450.29 47.46 C451.15 58.42, 445.34 64.86, 434.46 63.28 M450.29 47.46 C449.9 57.75, 446.68 64.59, 434.46 63.28 M434.46 63.28 C288.95 63.32, 141.35 63.96, 15.82 63.28 M434.46 63.28 C349.84 61.14, 265.51 61.35, 15.82 63.28 M15.82 63.28 C5.19 64.56, -0.88 57.95, 0 47.46 M15.82 63.28 C3.74 63.41, 2.25 56.78, 0 47.46 M0 47.46 C-1.23 40.46, 0.3 30.96, 0 15.82 M0 47.46 C1.02 40.85, -0.19 32.98, 0 15.82 M0 15.82 C-0.83 4.88, 4.64 1.29, 15.82 0 M0 15.82 C-1.07 4.75, 5.76 -0.46, 15.82 0" stroke="#000000" stroke-width="1" fill="none"></path></g><g stroke-linecap="round" transform="translate(692.7301282158212 148.73660359465964) rotate(0 749.6644545114946 79.10420380397261)"><path d="M32 0 M32 0 C520.19 -0.51, 1008.3 -0.62, 1467.33 0 M32 0 C343.31 -0.38, 654.15 0.09, 1467.33 0 M1467.33 0 C1489.01 0.46, 1499.91 10.75, 1499.33 32 M1467.33 0 C1489.46 -0.55, 1500.21 12.25, 1499.33 32 M1499.33 32 C1501.09 67.34, 1499.36 99.59, 1499.33 126.21 M1499.33 32 C1500.6 66.5, 1499.49 102.97, 1499.33 126.21 M1499.33 126.21 C1500.03 146.04, 1489.31 157.39, 1467.33 158.21 M1499.33 126.21 C1500.4 146.1, 1489.99 160.4, 1467.33 158.21 M1467.33 158.21 C1008.32 161.26, 548.68 161.08, 32 158.21 M1467.33 158.21 C955.41 162.12, 443.22 162.12, 32 158.21 M32 158.21 C11.23 160.18, 1.08 147.12, 0 126.21 M32 158.21 C8.92 156.19, 1.09 148.41, 0 126.21 M0 126.21 C-0.8 89.95, -0.12 57.23, 0 32 M0 126.21 C0.62 103.95, -0.04 81.36, 0 32 M0 32 C1.69 9.66, 11.73 -1.66, 32 0 M0 32 C-0.39 12.24, 12.16 -1.3, 32 0" stroke="#000000" stroke-width="1" fill="none"></path></g><g stroke-linecap="round" transform="translate(958.033457896837 336.1527172225333) rotate(0 617.0127896709866 59.02390591527188)"><path d="M29.51 0 M29.51 0 C277.91 -1.51, 526.58 -1.28, 1204.51 0 M29.51 0 C427.55 -3.76, 825.74 -3.9, 1204.51 0 M1204.51 0 C1223.41 1.52, 1235.07 10.6, 1234.03 29.51 M1204.51 0 C1224.11 -0.51, 1233.12 7.91, 1234.03 29.51 M1234.03 29.51 C1232.45 51.48, 1234.09 75.14, 1234.03 88.54 M1234.03 29.51 C1234.88 44.55, 1233.87 59.01, 1234.03 88.54 M1234.03 88.54 C1232.69 106.28, 1223.82 116.1, 1204.51 118.05 M1234.03 88.54 C1232.05 107.64, 1224.1 119.79, 1204.51 118.05 M1204.51 118.05 C929.79 115.65, 654.73 115.07, 29.51 118.05 M1204.51 118.05 C814.01 116.5, 424.1 116.93, 29.51 118.05 M29.51 118.05 C8.84 116.47, 1.92 107.58, 0 88.54 M29.51 118.05 C9.92 116.91, -0.27 109.45, 0 88.54 M0 88.54 C0.29 71.71, 0.81 58.76, 0 29.51 M0 88.54 C-0.18 74.38, 0.64 58.12, 0 29.51 M0 29.51 C-1.63 8.9, 8.3 -1.77, 29.51 0 M0 29.51 C-0.1 9.76, 8.83 0.56, 29.51 0" stroke="#000000" stroke-width="1" fill="none"></path></g><g stroke-linecap="round" transform="translate(579.4928963890811 877.6378345547566) rotate(0 825.9520100316845 38.32542470790952)"><path d="M19.16 0 M19.16 0 C620.43 0.67, 1222 0.8, 1632.74 0 M19.16 0 C358.25 -0.71, 696.57 -1.24, 1632.74 0 M1632.74 0 C1643.55 -1.05, 1653.07 5.74, 1651.9 19.16 M1632.74 0 C1647.74 0.04, 1650.99 6.47, 1651.9 19.16 M1651.9 19.16 C1652.34 27.27, 1651.01 33.99, 1651.9 57.49 M1651.9 19.16 C1652.3 29.24, 1652.53 37.1, 1651.9 57.49 M1651.9 57.49 C1649.92 69.14, 1644.05 75.1, 1632.74 76.65 M1651.9 57.49 C1652.66 69.04, 1643.33 75.76, 1632.74 76.65 M1632.74 76.65 C1145.27 78.24, 657.62 78.39, 19.16 76.65 M1632.74 76.65 C1055.62 79.51, 478.32 79.52, 19.16 76.65 M19.16 76.65 C6.48 77.01, 1.76 69.34, 0 57.49 M19.16 76.65 C5.87 75.53, 1.23 71.23, 0 57.49 M0 57.49 C-1.4 44.03, 0.3 34.24, 0 19.16 M0 57.49 C0.33 45.22, 0.05 34.14, 0 19.16 M0 19.16 C-1.77 8.03, 5.48 0.62, 19.16 0 M0 19.16 C0.92 6.55, 8.6 -1.68, 19.16 0" stroke="#000000" stroke-width="1" fill="none"></path></g><g stroke-linecap="round"><g transform="translate(2681.138747713732 603.1784642405423) rotate(0 -44.79471213342282 59.18616266691343)"><path d="M0.06 0.05 C-1.79 17.86, 3.53 87.24, -11.33 106.48 C-26.2 125.71, -76.28 114.19, -89.14 115.46 M-1.37 -0.97 C-3.39 17.04, 2.23 88.18, -12.48 107.82 C-27.19 127.47, -76.52 115.78, -89.65 116.92" stroke="#000000" stroke-width="1" fill="none"></path></g><g transform="translate(2681.138747713732 603.1784642405423) rotate(0 -44.79471213342282 59.18616266691343)"><path d="M-60.79 107.83 C-69.57 111.65, -76.58 115.13, -91.45 118.85 M-61.14 107.81 C-70.78 112.35, -81.35 115.3, -90.49 117.48" stroke="#000000" stroke-width="1" fill="none"></path></g><g transform="translate(2681.138747713732 603.1784642405423) rotate(0 -44.79471213342282 59.18616266691343)"><path d="M-62.09 128.31 C-70.44 126.39, -77.09 124.13, -91.45 118.85 M-62.44 128.29 C-71.56 125.81, -81.7 121.74, -90.49 117.48" stroke="#000000" stroke-width="1" fill="none"></path></g></g><mask></mask><g stroke-linecap="round"><g transform="translate(2708.4363155567476 601.7795988030897) rotate(0 53.730787521796266 59.45540827060975)"><path d="M0.78 0.59 C2.99 17.77, -5.03 83.37, 12.8 103.11 C30.62 122.86, 92 116.45, 107.73 119.06 M-0.27 -0.15 C1.9 17.24, -5.6 85.11, 12.36 104.66 C30.33 124.22, 91.63 115.18, 107.51 117.16" stroke="#000000" stroke-width="1" fill="none"></path></g><g transform="translate(2708.4363155567476 601.7795988030897) rotate(0 53.730787521796266 59.45540827060975)"><path d="M80.35 129.21 C86.81 126.37, 95.56 122.71, 108.47 118.54 M79.47 126.68 C87.98 124.66, 96.07 121.65, 108.25 116.88" stroke="#000000" stroke-width="1" fill="none"></path></g><g transform="translate(2708.4363155567476 601.7795988030897) rotate(0 53.730787521796266 59.45540827060975)"><path d="M80.24 108.69 C86.73 111.24, 95.5 112.96, 108.47 118.54 M79.36 106.16 C87.98 110.18, 96.1 113.2, 108.25 116.88" stroke="#000000" stroke-width="1" fill="none"></path></g></g><mask></mask><g stroke-linecap="round"><g transform="translate(2714.8203082042974 491.64486089881456) rotate(0 77.84472044287709 -36.42974927224782)"><path d="M-1.04 0.8 C1.94 -9.97, -9.34 -52.09, 16.95 -64.43 C43.25 -76.77, 133.53 -71.97, 156.73 -73.22 M0.62 0.18 C3.58 -10.97, -9.57 -54.23, 16.36 -66.33 C42.29 -78.44, 132.87 -71.73, 156.2 -72.45" stroke="#000000" stroke-width="1" fill="none"></path></g><g transform="translate(2714.8203082042974 491.64486089881456) rotate(0 77.84472044287709 -36.42974927224782)"><path d="M129.16 -61.58 C134.87 -63.89, 138.77 -67.01, 156.63 -73.08 M127.21 -62.39 C139.81 -65.62, 150.02 -70.67, 155.25 -71.48" stroke="#000000" stroke-width="1" fill="none"></path></g><g transform="translate(2714.8203082042974 491.64486089881456) rotate(0 77.84472044287709 -36.42974927224782)"><path d="M129.54 -82.1 C135.19 -79.81, 139 -78.34, 156.63 -73.08 M127.59 -82.91 C139.86 -78.12, 149.93 -75.15, 155.25 -71.48" stroke="#000000" stroke-width="1" fill="none"></path></g></g><mask></mask><g stroke-linecap="round"><g transform="translate(2672.7300799483583 493.43580645024383) rotate(0 -59.21631403258475 -91.34300883011682)"><path d="M0.04 0.53 C-2.25 -25.6, 6.34 -126.45, -13.34 -157.08 C-33.03 -187.7, -100.5 -178.89, -118.06 -183.22 M-1.39 -0.24 C-3.85 -26.2, 5.38 -125.56, -14.13 -155.93 C-33.64 -186.29, -101.09 -178.02, -118.48 -182.43" stroke="#000000" stroke-width="1" fill="none"></path></g><g transform="translate(2672.7300799483583 493.43580645024383) rotate(0 -59.21631403258475 -91.34300883011682)"><path d="M-88.73 -190.11 C-100.54 -186.77, -110.67 -185.09, -119.91 -182.31 M-88.81 -190.12 C-97.24 -188.42, -107.65 -185.57, -119.41 -182.38" stroke="#000000" stroke-width="1" fill="none"></path></g><g transform="translate(2672.7300799483583 493.43580645024383) rotate(0 -59.21631403258475 -91.34300883011682)"><path d="M-90.22 -169.64 C-101.47 -173.15, -111.1 -178.33, -119.91 -182.31 M-90.3 -169.65 C-98.33 -174.06, -108.3 -177.3, -119.41 -182.38" stroke="#000000" stroke-width="1" fill="none"></path></g></g><mask></mask><g stroke-linecap="round"><g transform="translate(1894.5007785436537 48.454032254834715) rotate(0 -48.27775120344654 -0.054957292601500285)"><path d="M-0.8 -1.17 C-17.02 -1.08, -80.7 0.78, -96.39 1.07 M0.97 0.82 C-15.5 0.56, -81.51 -0.11, -97.53 -0.5" stroke="#000000" stroke-width="1" fill="none"></path></g><g transform="translate(1894.5007785436537 48.454032254834715) rotate(0 -48.27775120344654 -0.054957292601500285)"><path d="M-71.13 -10.9 C-77.92 -5.05, -89.36 -3.06, -97.93 -2.12 M-68.55 -10.56 C-76.59 -7.15, -83.27 -6.3, -98.14 0.05" stroke="#000000" stroke-width="1" fill="none"></path></g><g transform="translate(1894.5007785436537 48.454032254834715) rotate(0 -48.27775120344654 -0.054957292601500285)"><path d="M-71.47 9.62 C-78.22 7.82, -89.53 2.17, -97.93 -2.12 M-68.88 9.96 C-77 8.32, -83.59 4.13, -98.14 0.05" stroke="#000000" stroke-width="1" fill="none"></path></g></g><mask></mask><g stroke-linecap="round"><g transform="translate(1278.611165084518 47.474096513451855) rotate(0 -62.42850523888421 1.3251626299546047)"><path d="M1.01 0.52 C-20.07 0.84, -104.28 1.36, -125.43 1.74 M0.07 -0.25 C-21.16 0.23, -104.79 2.14, -125.86 2.9" stroke="#000000" stroke-width="1" fill="none"></path></g><g transform="translate(1278.611165084518 47.474096513451855) rotate(0 -62.42850523888421 1.3251626299546047)"><path d="M-97.1 -6.52 C-109.88 -2.77, -118.83 -0.27, -127.52 4.78 M-97.02 -8.57 C-105.26 -5.12, -112.16 -1.76, -124.99 3.11" stroke="#000000" stroke-width="1" fill="none"></path></g><g transform="translate(1278.611165084518 47.474096513451855) rotate(0 -62.42850523888421 1.3251626299546047)"><path d="M-96.52 13.99 C-109.49 9.87, -118.67 4.51, -127.52 4.78 M-96.44 11.95 C-104.8 10.08, -111.84 8.13, -124.99 3.11" stroke="#000000" stroke-width="1" fill="none"></path></g></g><mask></mask><g stroke-linecap="round"><g transform="translate(851.8491497122766 49.433967996217575) rotate(0 -26.69423711185368 -1.3706938361290213)"><path d="M1.02 -0.34 C-7.81 -0.26, -44.17 -0.49, -53.44 -0.53 M0.1 -1.56 C-8.85 -1.76, -45.67 -2.23, -54.41 -2.42" stroke="#000000" stroke-width="1" fill="none"></path></g><g transform="translate(851.8491497122766 49.433967996217575) rotate(0 -26.69423711185368 -1.3706938361290213)"><path d="M-29.73 -11.2 C-35.05 -10.64, -41.67 -7.34, -55.75 -1.69 M-28.62 -10.41 C-37.25 -7.52, -44.71 -5.99, -54.69 -2.9" stroke="#000000" stroke-width="1" fill="none"></path></g><g transform="translate(851.8491497122766 49.433967996217575) rotate(0 -26.69423711185368 -1.3706938361290213)"><path d="M-30.03 7.07 C-35.12 2.88, -41.66 1.43, -55.75 -1.69 M-28.92 7.86 C-37.54 4.83, -44.9 0.44, -54.69 -2.9" stroke="#000000" stroke-width="1" fill="none"></path></g></g><mask></mask><g stroke-linecap="round"><g transform="translate(514.1887165602107 46.36792241209821) rotate(0 -25.492396337408536 -0.06313482227460554)"><path d="M1.15 -0.24 C-7.66 -0.06, -42.58 -0.02, -51.76 0.01 M0.3 -1.42 C-8.67 -0.97, -43.49 0.9, -52.14 1.29" stroke="#000000" stroke-width="1" fill="none"></path></g><g transform="translate(514.1887165602107 46.36792241209821) rotate(0 -25.492396337408536 -0.06313482227460554)"><path d="M-28.21 -7.18 C-38.23 -6.52, -47.9 -1.88, -50.79 1.13 M-26.88 -9.81 C-34.63 -6.97, -40.66 -2.35, -52.75 1.88" stroke="#000000" stroke-width="1" fill="none"></path></g><g transform="translate(514.1887165602107 46.36792241209821) rotate(0 -25.492396337408536 -0.06313482227460554)"><path d="M-27.3 10.87 C-37.51 4.47, -47.53 2.04, -50.79 1.13 M-25.97 8.24 C-34.11 6.02, -40.41 5.57, -52.75 1.88" stroke="#000000" stroke-width="1" fill="none"></path></g></g><mask></mask><g stroke-linecap="round"><g transform="translate(2991.243439982471 421.62995827607665) rotate(0 20.0458451558045 -0.6494194579590555)"><path d="M0.98 -0.25 C7.58 -0.35, 33.82 -0.86, 40.06 -0.78 M0.04 -1.43 C6.52 -1.42, 33.43 -0.35, 39.64 0.13" stroke="#000000" stroke-width="1" fill="none"></path></g><g transform="translate(2991.243439982471 421.62995827607665) rotate(0 20.0458451558045 -0.6494194579590555)"><path d="M20.56 7.46 C25.36 2.7, 33.34 1.45, 41.21 1.8 M20.47 5.29 C26.82 3.72, 33.67 1.84, 40.49 -0.8" stroke="#000000" stroke-width="1" fill="none"></path></g><g transform="translate(2991.243439982471 421.62995827607665) rotate(0 20.0458451558045 -0.6494194579590555)"><path d="M21.28 -5.87 C25.82 -6.11, 33.55 -2.84, 41.21 1.8 M21.19 -8.04 C27.33 -5.28, 33.94 -2.82, 40.49 -0.8" stroke="#000000" stroke-width="1" fill="none"></path></g></g><mask></mask><g stroke-linecap="round"><g transform="translate(3015.06648497445 716.4435559896502) rotate(0 22.003648187560685 1.1461349867322426)"><path d="M-0.6 0.64 C6.74 1.07, 37.2 2.33, 44.61 2.37 M1.28 -0.07 C8.45 0.05, 36.9 0.4, 43.84 0.73" stroke="#000000" stroke-width="1" fill="none"></path></g><g transform="translate(3015.06648497445 716.4435559896502) rotate(0 22.003648187560685 1.1461349867322426)"><path d="M23.89 8.3 C31.59 4.76, 36.31 3.24, 42.76 -0.57 M23.8 6.78 C31.52 4.92, 39.24 2.35, 43.32 1.21" stroke="#000000" stroke-width="1" fill="none"></path></g><g transform="translate(3015.06648497445 716.4435559896502) rotate(0 22.003648187560685 1.1461349867322426)"><path d="M24.3 -6.85 C31.83 -5.18, 36.41 -1.5, 42.76 -0.57 M24.21 -8.37 C31.65 -4.56, 39.21 -1.45, 43.32 1.21" stroke="#000000" stroke-width="1" fill="none"></path></g></g><mask></mask><g stroke-linecap="round"><g transform="translate(3514.6343048036942 718.849952038924) rotate(0 14.391745154263447 -0.9335508498347167)"><path d="M-0.87 0.09 C4.07 -0.08, 24.61 0.13, 29.65 -0.04 M0.87 -0.9 C5.73 -1.52, 24.44 -2.11, 29.11 -1.93" stroke="#000000" stroke-width="1" fill="none"></path></g><g transform="translate(3514.6343048036942 718.849952038924) rotate(0 14.391745154263447 -0.9335508498347167)"><path d="M15.67 3.99 C20.1 2.3, 23.09 0.51, 30.29 -1.08 M15.19 3.69 C18.81 2.33, 22.41 0.25, 28.94 -2.56" stroke="#000000" stroke-width="1" fill="none"></path></g><g transform="translate(3514.6343048036942 718.849952038924) rotate(0 14.391745154263447 -0.9335508498347167)"><path d="M15.64 -5.88 C20.16 -4.63, 23.15 -3.47, 30.29 -1.08 M15.16 -6.19 C18.77 -4.93, 22.37 -4.39, 28.94 -2.56" stroke="#000000" stroke-width="1" fill="none"></path></g></g><mask></mask><g stroke-linecap="round"><g transform="translate(3930.4595421182103 718.849952038924) rotate(0 22.85477627580417 1.3783958445552997)"><path d="M-1.05 0.76 C6.63 1.29, 38.87 2.41, 46.76 2.64 M0.59 0.12 C8.02 0.31, 37.59 0.1, 45.6 0.64" stroke="#000000" stroke-width="1" fill="none"></path></g><g transform="translate(3930.4595421182103 718.849952038924) rotate(0 22.85477627580417 1.3783958445552997)"><path d="M24.48 7.45 C31.64 4.16, 38.84 1.02, 45.97 0.42 M24.03 8.17 C27.12 6.96, 32.19 5.61, 46.11 -0.31" stroke="#000000" stroke-width="1" fill="none"></path></g><g transform="translate(3930.4595421182103 718.849952038924) rotate(0 22.85477627580417 1.3783958445552997)"><path d="M24.91 -8.69 C31.84 -6.22, 38.89 -3.58, 45.97 0.42 M24.45 -7.98 C27.34 -5.78, 32.32 -3.72, 46.11 -0.31" stroke="#000000" stroke-width="1" fill="none"></path></g></g><mask></mask><g stroke-linecap="round"><g transform="translate(2426.185965467056 312.6535460284912) rotate(0 -117.02202903350596 48.275104296131616)"><path d="M0.3 -0.02 C-13.26 0.47, -63.11 -12.17, -80.56 3.75 C-98.01 19.67, -78.82 81.11, -104.41 95.49 C-130 109.87, -212.77 90.94, -234.11 90.03 M-1 -1.07 C-14.72 -0.44, -63.81 -10.47, -81.14 5.33 C-98.46 21.12, -79.41 79.92, -104.94 93.7 C-130.47 107.49, -212.91 89.12, -234.34 88.06" stroke="#000000" stroke-width="1" fill="none"></path></g><g transform="translate(2426.185965467056 312.6535460284912) rotate(0 -117.02202903350596 48.275104296131616)"><path d="M-205.08 82.76 C-215.52 84.73, -224.52 84.83, -232.47 89.3 M-205.91 81.67 C-215.68 83.58, -229 87.78, -233.61 87.73" stroke="#000000" stroke-width="1" fill="none"></path></g><g transform="translate(2426.185965467056 312.6535460284912) rotate(0 -117.02202903350596 48.275104296131616)"><path d="M-207.76 103.11 C-217.37 97.68, -225.39 90.38, -232.47 89.3 M-208.59 102.01 C-217.2 95.89, -229.46 92.08, -233.61 87.73" stroke="#000000" stroke-width="1" fill="none"></path></g></g><mask></mask><g stroke-linecap="round"><g transform="translate(2425.442682030157 312.5016504680515) rotate(0 -144.3080802545888 -132.80178076008207)"><path d="M-0.75 0.8 C-14.4 -4.94, -67.87 5.77, -82.68 -35.14 C-97.49 -76.04, -55.13 -207.03, -89.63 -244.63 C-124.13 -282.24, -256.23 -258.13, -289.67 -260.77 M1.05 0.17 C-12.13 -5.38, -65.06 6.55, -80.36 -34.09 C-95.66 -74.73, -55.91 -205.53, -90.75 -243.67 C-125.6 -281.81, -256.49 -259.67, -289.44 -262.92" stroke="#000000" stroke-width="1" fill="none"></path></g><g transform="translate(2425.442682030157 312.5016504680515) rotate(0 -144.3080802545888 -132.80178076008207)"><path d="M-260.26 -275.32 C-269.68 -272.79, -275.7 -269.12, -288.15 -263.95 M-260.82 -274.01 C-273.38 -269.07, -283.24 -264.91, -290.23 -262.04" stroke="#000000" stroke-width="1" fill="none"></path></g><g transform="translate(2425.442682030157 312.5016504680515) rotate(0 -144.3080802545888 -132.80178076008207)"><path d="M-259.61 -254.81 C-269.05 -257.04, -275.23 -258.12, -288.15 -263.95 M-260.17 -253.5 C-272.82 -256.55, -282.92 -260.38, -290.23 -262.04" stroke="#000000" stroke-width="1" fill="none"></path></g></g><mask></mask><g stroke-linecap="round"><g transform="translate(2426.0795110470417 312.66526073471596) rotate(0 -116.5991478031422 -46.397373107048)"><path d="M0.75 0.47 C-20.85 -3.06, -104.19 -7.55, -128.48 -21.68 C-152.77 -35.8, -127.47 -72.88, -145.01 -84.29 C-162.55 -95.7, -219.27 -88.9, -233.72 -90.15 M-0.32 -0.33 C-22.12 -4.17, -105.41 -9.08, -129.14 -23.44 C-152.86 -37.79, -125.18 -74.99, -142.65 -86.44 C-160.12 -97.89, -218.95 -91.27, -233.95 -92.15" stroke="#000000" stroke-width="1" fill="none"></path></g><g transform="translate(2426.0795110470417 312.66526073471596) rotate(0 -116.5991478031422 -46.397373107048)"><path d="M-205.22 -102.15 C-215.81 -100.32, -227.26 -95.86, -232.17 -90.34 M-206.86 -102.61 C-212.92 -101.55, -220.26 -97.18, -233.78 -92.44" stroke="#000000" stroke-width="1" fill="none"></path></g><g transform="translate(2426.0795110470417 312.66526073471596) rotate(0 -116.5991478031422 -46.397373107048)"><path d="M-204.73 -81.63 C-215.43 -87.81, -227.07 -91.36, -232.17 -90.34 M-206.37 -82.09 C-212.68 -86.22, -220.15 -87.03, -233.78 -92.44" stroke="#000000" stroke-width="1" fill="none"></path></g></g><mask></mask><g stroke-linecap="round"><g transform="translate(2332.59260761312 717.7014773533094) rotate(0 -59.26058271502515 -79.36064324421815)"><path d="M-0.1 0.36 C-8.12 -2.67, -40.67 5.39, -47.27 -18.7 C-53.86 -42.79, -27.8 -120.94, -39.66 -144.18 C-51.52 -167.41, -105.23 -155.97, -118.42 -158.1 M-1.61 -0.5 C-9.33 -3.27, -38.59 6.67, -45.02 -17.16 C-51.45 -40.99, -28.03 -120.16, -40.2 -143.48 C-52.37 -166.81, -104.69 -155.01, -118.04 -157.11" stroke="#000000" stroke-width="1" fill="none"></path></g><g transform="translate(2332.59260761312 717.7014773533094) rotate(0 -59.26058271502515 -79.36064324421815)"><path d="M-89.54 -169.6 C-100.58 -163.31, -112.96 -159.52, -118.41 -157.32 M-90.59 -168.99 C-101.21 -163.79, -111.69 -159.36, -117.87 -156.75" stroke="#000000" stroke-width="1" fill="none"></path></g><g transform="translate(2332.59260761312 717.7014773533094) rotate(0 -59.26058271502515 -79.36064324421815)"><path d="M-89 -149.08 C-100.14 -150.43, -112.73 -154.29, -118.41 -157.32 M-90.05 -148.48 C-100.97 -151.01, -111.65 -154.32, -117.87 -156.75" stroke="#000000" stroke-width="1" fill="none"></path></g></g><mask></mask><g stroke-linecap="round"><g transform="translate(2330.794510596657 716.9822385467243) rotate(0 -56.15014373147147 -47.38109342515686)"><path d="M0.93 1.1 C-6.31 -0.34, -36.74 5.68, -44.06 -9.86 C-51.38 -25.4, -31.48 -80.15, -43.01 -92.13 C-54.54 -104.1, -101.31 -83.64, -113.23 -81.73 M-0.04 0.64 C-7.41 -1.02, -37.91 3.83, -45.12 -11.42 C-52.34 -26.67, -32.08 -79.24, -43.33 -90.84 C-54.57 -102.45, -101.03 -82.84, -112.58 -81.05" stroke="#000000" stroke-width="1" fill="none"></path></g><g transform="translate(2330.794510596657 716.9822385467243) rotate(0 -56.15014373147147 -47.38109342515686)"><path d="M-86.43 -98.99 C-92.79 -92.58, -100.79 -88.32, -113.94 -82 M-89.02 -97.72 C-96.54 -93.82, -104.17 -87.35, -112.12 -80.89" stroke="#000000" stroke-width="1" fill="none"></path></g><g transform="translate(2330.794510596657 716.9822385467243) rotate(0 -56.15014373147147 -47.38109342515686)"><path d="M-80.83 -79.25 C-88.39 -77.76, -97.8 -78.47, -113.94 -82 M-83.41 -77.98 C-92.89 -80.38, -102.32 -80.26, -112.12 -80.89" stroke="#000000" stroke-width="1" fill="none"></path></g></g><mask></mask><g stroke-linecap="round"><g transform="translate(2330.0752717900714 717.3418579500169) rotate(0 -47.29871211268548 35.21964979998179)"><path d="M0.5 -0.26 C-6.79 0.38, -36.71 -6.4, -43.14 4.82 C-49.56 16.04, -29.38 56.97, -38.04 67.08 C-46.71 77.18, -85.49 65.66, -95.1 65.44 M-0.69 -1.44 C-7.68 -0.67, -34.53 -5.2, -40.94 6.39 C-47.34 17.99, -30.14 58.15, -39.11 68.11 C-48.08 78.07, -85.65 66.52, -94.75 66.17" stroke="#000000" stroke-width="1" fill="none"></path></g><g transform="translate(2330.0752717900714 717.3418579500169) rotate(0 -47.29871211268548 35.21964979998179)"><path d="M-66.73 59.39 C-76.19 61.99, -87.26 65.1, -95.96 65.49 M-66.64 61.66 C-74.37 62.93, -81.76 63.37, -93.99 66.68" stroke="#000000" stroke-width="1" fill="none"></path></g><g transform="translate(2330.0752717900714 717.3418579500169) rotate(0 -47.29871211268548 35.21964979998179)"><path d="M-70.07 78.89 C-78.51 74.59, -88.4 70.81, -95.96 65.49 M-69.98 81.16 C-76.63 77.17, -83.12 72.35, -93.99 66.68" stroke="#000000" stroke-width="1" fill="none"></path></g></g><mask></mask></svg>